<svg width="290" height="47" viewBox="0 0 290 47" fill="white" xmlns="http://www.w3.org/2000/svg">
<g filter="url(#filter0_dd_23_127)">
<path d="M9.60938 38H4.24805V12.3008H18.9785V16.7656H9.60938V23.3926H18.3281V27.8398H9.60938V38ZM38.8066 38H24.0059V12.3008H38.8066V16.7656H29.4551V22.4082H38.1562V26.873H29.4551V33.5H38.8066V38ZM28.2246 10.2441V9.76953C30.2402 7.42578 31.6172 5.66211 32.3555 4.47852H38.3672V4.84766C37.7578 5.45703 36.7148 6.36523 35.2383 7.57227C33.7734 8.76758 32.625 9.6582 31.793 10.2441H28.2246ZM44.1855 38V12.3008H49.6348V33.5H60.0586V38H44.1855ZM64.541 38V12.3008H69.9902V38H64.541ZM87.375 16.4668C85.3242 16.4668 83.7363 17.2402 82.6113 18.7871C81.4863 20.3223 80.9238 22.4668 80.9238 25.2207C80.9238 30.9512 83.0742 33.8164 87.375 33.8164C89.1797 33.8164 91.3652 33.3652 93.9316 32.4629V37.0332C91.8223 37.9121 89.4668 38.3516 86.8652 38.3516C83.127 38.3516 80.2676 37.2207 78.2871 34.959C76.3066 32.6855 75.3164 29.4277 75.3164 25.1855C75.3164 22.5137 75.8027 20.1758 76.7754 18.1719C77.748 16.1562 79.1426 14.6152 80.959 13.5488C82.7871 12.4707 84.9258 11.9316 87.375 11.9316C89.8711 11.9316 92.3789 12.5352 94.8984 13.7422L93.1406 18.1719C92.1797 17.7148 91.2129 17.3164 90.2402 16.9766C89.2676 16.6367 88.3125 16.4668 87.375 16.4668ZM99.416 38V12.3008H104.865V38H99.416ZM121.248 38H115.799V16.8359H108.82V12.3008H128.227V16.8359H121.248V38ZM147.914 38L146.051 31.8828H136.682L134.818 38H128.947L138.018 12.1953H144.68L153.785 38H147.914ZM144.75 27.3125C143.027 21.7695 142.055 18.6348 141.832 17.9082C141.621 17.1816 141.469 16.6074 141.375 16.1855C140.988 17.6855 139.881 21.3945 138.053 27.3125H144.75ZM166.951 38H161.502V16.8359H154.523V12.3008H173.93V16.8359H166.951V38ZM177.885 38V12.3008H183.334V38H177.885ZM213.129 25.1152C213.129 29.3691 212.074 32.6387 209.965 34.9238C207.855 37.209 204.832 38.3516 200.895 38.3516C196.957 38.3516 193.934 37.209 191.824 34.9238C189.715 32.6387 188.66 29.3574 188.66 25.0801C188.66 20.8027 189.715 17.5391 191.824 15.2891C193.945 13.0273 196.98 11.8965 200.93 11.8965C204.879 11.8965 207.896 13.0332 209.982 15.3066C212.08 17.5801 213.129 20.8496 213.129 25.1152ZM194.373 25.1152C194.373 27.9863 194.918 30.1484 196.008 31.6016C197.098 33.0547 198.727 33.7812 200.895 33.7812C205.242 33.7812 207.416 30.8926 207.416 25.1152C207.416 19.3262 205.254 16.4316 200.93 16.4316C198.762 16.4316 197.127 17.1641 196.025 18.6289C194.924 20.082 194.373 22.2441 194.373 25.1152ZM241.254 38H234.328L223.148 18.5586H222.99C223.213 21.9922 223.324 24.4414 223.324 25.9062V38H218.455V12.3008H225.328L236.49 31.5488H236.613C236.438 28.209 236.35 25.8477 236.35 24.4648V12.3008H241.254V38ZM262.91 30.8633C262.91 33.1836 262.072 35.0117 260.396 36.3477C258.732 37.6836 256.412 38.3516 253.436 38.3516C250.693 38.3516 248.268 37.8359 246.158 36.8047V31.7422C247.893 32.5156 249.357 33.0605 250.553 33.377C251.76 33.6934 252.861 33.8516 253.857 33.8516C255.053 33.8516 255.967 33.623 256.6 33.166C257.244 32.709 257.566 32.0293 257.566 31.127C257.566 30.623 257.426 30.1777 257.145 29.791C256.863 29.3926 256.447 29.0117 255.896 28.6484C255.357 28.2852 254.25 27.7051 252.574 26.9082C251.004 26.1699 249.826 25.4609 249.041 24.7812C248.256 24.1016 247.629 23.3105 247.16 22.4082C246.691 21.5059 246.457 20.4512 246.457 19.2441C246.457 16.9707 247.225 15.1836 248.76 13.8828C250.307 12.582 252.439 11.9316 255.158 11.9316C256.494 11.9316 257.766 12.0898 258.973 12.4062C260.191 12.7227 261.463 13.168 262.787 13.7422L261.029 17.9785C259.658 17.416 258.521 17.0234 257.619 16.8008C256.729 16.5781 255.85 16.4668 254.982 16.4668C253.951 16.4668 253.16 16.707 252.609 17.1875C252.059 17.668 251.783 18.2949 251.783 19.0684C251.783 19.5488 251.895 19.9707 252.117 20.334C252.34 20.6855 252.691 21.0312 253.172 21.3711C253.664 21.6992 254.818 22.2969 256.635 23.1641C259.037 24.3125 260.684 25.4668 261.574 26.627C262.465 27.7754 262.91 29.1875 262.91 30.8633ZM280.998 29.4746H276.709L275.812 12.3008H281.895L280.998 29.4746ZM275.742 35.4863C275.742 34.502 276.006 33.7578 276.533 33.2539C277.061 32.75 277.828 32.498 278.836 32.498C279.809 32.498 280.559 32.7559 281.086 33.2715C281.625 33.7871 281.895 34.5254 281.895 35.4863C281.895 36.4121 281.625 37.1445 281.086 37.6836C280.547 38.2109 279.797 38.4746 278.836 38.4746C277.852 38.4746 277.09 38.2168 276.551 37.7012C276.012 37.1738 275.742 36.4355 275.742 35.4863Z" fill="white" shape-rendering="crispEdges"/>
<path d="M9.60938 38V41H12.6094V38H9.60938ZM4.24805 38H1.24805V41H4.24805V38ZM4.24805 12.3008V9.30078H1.24805V12.3008H4.24805ZM18.9785 12.3008H21.9785V9.30078H18.9785V12.3008ZM18.9785 16.7656V19.7656H21.9785V16.7656H18.9785ZM9.60938 16.7656V13.7656H6.60938V16.7656H9.60938ZM9.60938 23.3926H6.60938V26.3926H9.60938V23.3926ZM18.3281 23.3926H21.3281V20.3926H18.3281V23.3926ZM18.3281 27.8398V30.8398H21.3281V27.8398H18.3281ZM9.60938 27.8398V24.8398H6.60938V27.8398H9.60938ZM9.60938 35H4.24805V41H9.60938V35ZM7.24805 38V12.3008H1.24805V38H7.24805ZM4.24805 15.3008H18.9785V9.30078H4.24805V15.3008ZM15.9785 12.3008V16.7656H21.9785V12.3008H15.9785ZM18.9785 13.7656H9.60938V19.7656H18.9785V13.7656ZM6.60938 16.7656V23.3926H12.6094V16.7656H6.60938ZM9.60938 26.3926H18.3281V20.3926H9.60938V26.3926ZM15.3281 23.3926V27.8398H21.3281V23.3926H15.3281ZM18.3281 24.8398H9.60938V30.8398H18.3281V24.8398ZM6.60938 27.8398V38H12.6094V27.8398H6.60938ZM38.8066 38V41H41.8066V38H38.8066ZM24.0059 38H21.0059V41H24.0059V38ZM24.0059 12.3008V9.30078H21.0059V12.3008H24.0059ZM38.8066 12.3008H41.8066V9.30078H38.8066V12.3008ZM38.8066 16.7656V19.7656H41.8066V16.7656H38.8066ZM29.4551 16.7656V13.7656H26.4551V16.7656H29.4551ZM29.4551 22.4082H26.4551V25.4082H29.4551V22.4082ZM38.1562 22.4082H41.1562V19.4082H38.1562V22.4082ZM38.1562 26.873V29.873H41.1562V26.873H38.1562ZM29.4551 26.873V23.873H26.4551V26.873H29.4551ZM29.4551 33.5H26.4551V36.5H29.4551V33.5ZM38.8066 33.5H41.8066V30.5H38.8066V33.5ZM28.2246 10.2441H25.2246V13.2441H28.2246V10.2441ZM28.2246 9.76953L25.9501 7.81341L25.2246 8.65695V9.76953H28.2246ZM32.3555 4.47852V1.47852H30.691L29.8101 2.89078L32.3555 4.47852ZM38.3672 4.47852H41.3672V1.47852H38.3672V4.47852ZM38.3672 4.84766L40.4885 6.96898L41.3672 6.0903V4.84766H38.3672ZM35.2383 7.57227L37.135 9.89662L37.137 9.89496L35.2383 7.57227ZM31.793 10.2441V13.2441H32.7433L33.5203 12.697L31.793 10.2441ZM38.8066 35H24.0059V41H38.8066V35ZM27.0059 38V12.3008H21.0059V38H27.0059ZM24.0059 15.3008H38.8066V9.30078H24.0059V15.3008ZM35.8066 12.3008V16.7656H41.8066V12.3008H35.8066ZM38.8066 13.7656H29.4551V19.7656H38.8066V13.7656ZM26.4551 16.7656V22.4082H32.4551V16.7656H26.4551ZM29.4551 25.4082H38.1562V19.4082H29.4551V25.4082ZM35.1562 22.4082V26.873H41.1562V22.4082H35.1562ZM38.1562 23.873H29.4551V29.873H38.1562V23.873ZM26.4551 26.873V33.5H32.4551V26.873H26.4551ZM29.4551 36.5H38.8066V30.5H29.4551V36.5ZM35.8066 33.5V38H41.8066V33.5H35.8066ZM31.2246 10.2441V9.76953H25.2246V10.2441H31.2246ZM30.4992 11.7256C32.5245 9.37064 34.0321 7.45909 34.9009 6.06625L29.8101 2.89078C29.2023 3.86513 27.956 5.48092 25.9501 7.81341L30.4992 11.7256ZM32.3555 7.47852H38.3672V1.47852H32.3555V7.47852ZM35.3672 4.47852V4.84766H41.3672V4.47852H35.3672ZM36.2459 2.72634C35.7507 3.22147 34.8083 4.04893 33.3396 5.24957L37.137 9.89496C38.6214 8.68153 39.7649 7.69259 40.4885 6.96898L36.2459 2.72634ZM33.3416 5.24791C31.8937 6.42938 30.8101 7.26703 30.0656 7.79132L33.5203 12.697C34.4399 12.0494 35.6531 11.1058 37.135 9.89662L33.3416 5.24791ZM31.793 7.24414H28.2246V13.2441H31.793V7.24414ZM44.1855 38H41.1855V41H44.1855V38ZM44.1855 12.3008V9.30078H41.1855V12.3008H44.1855ZM49.6348 12.3008H52.6348V9.30078H49.6348V12.3008ZM49.6348 33.5H46.6348V36.5H49.6348V33.5ZM60.0586 33.5H63.0586V30.5H60.0586V33.5ZM60.0586 38V41H63.0586V38H60.0586ZM47.1855 38V12.3008H41.1855V38H47.1855ZM44.1855 15.3008H49.6348V9.30078H44.1855V15.3008ZM46.6348 12.3008V33.5H52.6348V12.3008H46.6348ZM49.6348 36.5H60.0586V30.5H49.6348V36.5ZM57.0586 33.5V38H63.0586V33.5H57.0586ZM60.0586 35H44.1855V41H60.0586V35ZM64.541 38H61.541V41H64.541V38ZM64.541 12.3008V9.30078H61.541V12.3008H64.541ZM69.9902 12.3008H72.9902V9.30078H69.9902V12.3008ZM69.9902 38V41H72.9902V38H69.9902ZM67.541 38V12.3008H61.541V38H67.541ZM64.541 15.3008H69.9902V9.30078H64.541V15.3008ZM66.9902 12.3008V38H72.9902V12.3008H66.9902ZM69.9902 35H64.541V41H69.9902V35ZM82.6113 18.7871L85.0311 20.5604L85.0375 20.5516L82.6113 18.7871ZM93.9316 32.4629H96.9316V28.2281L92.9366 29.6327L93.9316 32.4629ZM93.9316 37.0332L95.0855 39.8024L96.9316 39.0332V37.0332H93.9316ZM78.2871 34.959L76.025 36.9295L76.0301 36.9353L78.2871 34.959ZM76.7754 18.1719L79.4743 19.4819L79.4773 19.4757L76.7754 18.1719ZM80.959 13.5488L82.4779 16.1359L82.4829 16.1329L80.959 13.5488ZM94.8984 13.7422L97.6869 14.8487L98.7196 12.2463L96.1946 11.0366L94.8984 13.7422ZM93.1406 18.1719L91.8521 20.8811L94.7468 22.2578L95.9291 19.2784L93.1406 18.1719ZM87.375 13.4668C84.4454 13.4668 81.9207 14.6362 80.1851 17.0226L85.0375 20.5516C85.552 19.8442 86.203 19.4668 87.375 19.4668V13.4668ZM80.1915 17.0138C78.5547 19.2474 77.9238 22.103 77.9238 25.2207H83.9238C83.9238 22.8306 84.418 21.3971 85.0311 20.5604L80.1915 17.0138ZM77.9238 25.2207C77.9238 28.3747 78.5004 31.2873 80.1372 33.4683C81.8956 35.8111 84.4934 36.8164 87.375 36.8164V30.8164C85.9558 30.8164 85.3281 30.389 84.936 29.8667C84.4224 29.1824 83.9238 27.7971 83.9238 25.2207H77.9238ZM87.375 36.8164C89.6445 36.8164 92.1861 36.2566 94.9267 35.2931L92.9366 29.6327C90.5444 30.4738 88.7149 30.8164 87.375 30.8164V36.8164ZM90.9316 32.4629V37.0332H96.9316V32.4629H90.9316ZM92.7778 34.264C91.0812 34.9709 89.1253 35.3516 86.8652 35.3516V41.3516C89.8083 41.3516 92.5633 40.8533 95.0855 39.8024L92.7778 34.264ZM86.8652 35.3516C83.764 35.3516 81.8204 34.4402 80.5441 32.9826L76.0301 36.9353C78.7148 40.0012 82.4899 41.3516 86.8652 41.3516V35.3516ZM80.5492 32.9884C79.2068 31.4475 78.3164 28.996 78.3164 25.1855H72.3164C72.3164 29.8594 73.4064 33.9236 76.025 36.9295L80.5492 32.9884ZM78.3164 25.1855C78.3164 22.8781 78.7354 21.004 79.4743 19.4819L74.0765 16.8619C72.87 19.3475 72.3164 22.1493 72.3164 25.1855H78.3164ZM79.4773 19.4757C80.2085 17.9604 81.207 16.882 82.4779 16.1359L79.4401 10.9617C77.0782 12.3484 75.2876 14.3521 74.0735 16.8681L79.4773 19.4757ZM82.4829 16.1329C83.7822 15.3667 85.378 14.9316 87.375 14.9316V8.93164C84.4735 8.93164 81.792 9.57469 79.435 10.9647L82.4829 16.1329ZM87.375 14.9316C89.3715 14.9316 91.4387 15.4112 93.6023 16.4477L96.1946 11.0366C93.3191 9.65906 90.3707 8.93164 87.375 8.93164V14.9316ZM92.11 12.6357L90.3521 17.0653L95.9291 19.2784L97.6869 14.8487L92.11 12.6357ZM94.4291 15.4627C93.374 14.9608 92.3075 14.521 91.2298 14.1445L89.2507 19.8087C90.1183 20.1118 90.9854 20.4688 91.8521 20.8811L94.4291 15.4627ZM91.2298 14.1445C89.9704 13.7044 88.6811 13.4668 87.375 13.4668V19.4668C87.9439 19.4668 88.5648 19.569 89.2507 19.8087L91.2298 14.1445ZM99.416 38H96.416V41H99.416V38ZM99.416 12.3008V9.30078H96.416V12.3008H99.416ZM104.865 12.3008H107.865V9.30078H104.865V12.3008ZM104.865 38V41H107.865V38H104.865ZM102.416 38V12.3008H96.416V38H102.416ZM99.416 15.3008H104.865V9.30078H99.416V15.3008ZM101.865 12.3008V38H107.865V12.3008H101.865ZM104.865 35H99.416V41H104.865V35ZM121.248 38V41H124.248V38H121.248ZM115.799 38H112.799V41H115.799V38ZM115.799 16.8359H118.799V13.8359H115.799V16.8359ZM108.82 16.8359H105.82V19.8359H108.82V16.8359ZM108.82 12.3008V9.30078H105.82V12.3008H108.82ZM128.227 12.3008H131.227V9.30078H128.227V12.3008ZM128.227 16.8359V19.8359H131.227V16.8359H128.227ZM121.248 16.8359V13.8359H118.248V16.8359H121.248ZM121.248 35H115.799V41H121.248V35ZM118.799 38V16.8359H112.799V38H118.799ZM115.799 13.8359H108.82V19.8359H115.799V13.8359ZM111.82 16.8359V12.3008H105.82V16.8359H111.82ZM108.82 15.3008H128.227V9.30078H108.82V15.3008ZM125.227 12.3008V16.8359H131.227V12.3008H125.227ZM128.227 13.8359H121.248V19.8359H128.227V13.8359ZM118.248 16.8359V38H124.248V16.8359H118.248ZM147.914 38L145.044 38.8741L145.692 41H147.914V38ZM146.051 31.8828L148.921 31.0087L148.273 28.8828H146.051V31.8828ZM136.682 31.8828V28.8828H134.459L133.812 31.0087L136.682 31.8828ZM134.818 38V41H137.041L137.688 38.8741L134.818 38ZM128.947 38L126.117 37.0052L124.713 41H128.947V38ZM138.018 12.1953V9.19531H135.892L135.187 11.2005L138.018 12.1953ZM144.68 12.1953L147.509 11.1971L146.802 9.19531H144.68V12.1953ZM153.785 38V41H158.025L156.614 37.0017L153.785 38ZM144.75 27.3125V30.3125H148.824L147.615 26.4222L144.75 27.3125ZM141.832 17.9082L138.951 18.7446L138.957 18.766L138.964 18.7872L141.832 17.9082ZM141.375 16.1855L144.304 15.5348L138.47 15.4366L141.375 16.1855ZM138.053 27.3125L135.186 26.4271L133.986 30.3125H138.053V27.3125ZM150.784 37.1259L148.921 31.0087L143.181 32.757L145.044 38.8741L150.784 37.1259ZM146.051 28.8828H136.682V34.8828H146.051V28.8828ZM133.812 31.0087L131.949 37.1259L137.688 38.8741L139.551 32.757L133.812 31.0087ZM134.818 35H128.947V41H134.818V35ZM131.778 38.9948L140.848 13.1901L135.187 11.2005L126.117 37.0052L131.778 38.9948ZM138.018 15.1953H144.68V9.19531H138.018V15.1953ZM141.851 13.1936L150.956 38.9983L156.614 37.0017L147.509 11.1971L141.851 13.1936ZM153.785 35H147.914V41H153.785V35ZM147.615 26.4222C145.891 20.8749 144.921 17.7484 144.7 17.0292L138.964 18.7872C139.189 19.5211 140.164 22.6641 141.885 28.2028L147.615 26.4222ZM144.713 17.0718C144.509 16.3685 144.377 15.8648 144.304 15.5348L138.446 16.8363C138.561 17.35 138.733 17.9948 138.951 18.7446L144.713 17.0718ZM138.47 15.4366C138.105 16.8523 137.022 20.4838 135.186 26.4271L140.919 28.1979C142.739 22.3053 143.872 18.5188 144.28 16.9345L138.47 15.4366ZM138.053 30.3125H144.75V24.3125H138.053V30.3125ZM166.951 38V41H169.951V38H166.951ZM161.502 38H158.502V41H161.502V38ZM161.502 16.8359H164.502V13.8359H161.502V16.8359ZM154.523 16.8359H151.523V19.8359H154.523V16.8359ZM154.523 12.3008V9.30078H151.523V12.3008H154.523ZM173.93 12.3008H176.93V9.30078H173.93V12.3008ZM173.93 16.8359V19.8359H176.93V16.8359H173.93ZM166.951 16.8359V13.8359H163.951V16.8359H166.951ZM166.951 35H161.502V41H166.951V35ZM164.502 38V16.8359H158.502V38H164.502ZM161.502 13.8359H154.523V19.8359H161.502V13.8359ZM157.523 16.8359V12.3008H151.523V16.8359H157.523ZM154.523 15.3008H173.93V9.30078H154.523V15.3008ZM170.93 12.3008V16.8359H176.93V12.3008H170.93ZM173.93 13.8359H166.951V19.8359H173.93V13.8359ZM163.951 16.8359V38H169.951V16.8359H163.951ZM177.885 38H174.885V41H177.885V38ZM177.885 12.3008V9.30078H174.885V12.3008H177.885ZM183.334 12.3008H186.334V9.30078H183.334V12.3008ZM183.334 38V41H186.334V38H183.334ZM180.885 38V12.3008H174.885V38H180.885ZM177.885 15.3008H183.334V9.30078H177.885V15.3008ZM180.334 12.3008V38H186.334V12.3008H180.334ZM183.334 35H177.885V41H183.334V35ZM191.824 15.2891L189.636 13.2369L189.636 13.2372L191.824 15.2891ZM209.982 15.3066L207.772 17.3349L207.778 17.341L209.982 15.3066ZM196.025 18.6289L198.416 20.4412L198.423 20.432L196.025 18.6289ZM210.129 25.1152C210.129 28.8956 209.195 31.3345 207.76 32.889L212.169 36.9587C214.953 33.9429 216.129 29.8427 216.129 25.1152H210.129ZM207.76 32.889C206.362 34.4038 204.232 35.3516 200.895 35.3516V41.3516C205.432 41.3516 209.349 40.0142 212.169 36.9587L207.76 32.889ZM200.895 35.3516C197.557 35.3516 195.427 34.4038 194.029 32.889L189.62 36.9587C192.44 40.0142 196.357 41.3516 200.895 41.3516V35.3516ZM194.029 32.889C192.596 31.3373 191.66 28.889 191.66 25.0801H185.66C185.66 29.8258 186.833 33.9401 189.62 36.9587L194.029 32.889ZM191.66 25.0801C191.66 21.2675 192.598 18.8504 194.013 17.3409L189.636 13.2372C186.832 16.2278 185.66 20.338 185.66 25.0801H191.66ZM194.012 17.3413C195.421 15.8398 197.569 14.8965 200.93 14.8965V8.89648C196.392 8.89648 192.47 10.2148 189.636 13.2369L194.012 17.3413ZM200.93 14.8965C204.288 14.8965 206.404 15.8436 207.772 17.3348L212.193 13.2784C209.389 10.2228 205.469 8.89648 200.93 8.89648V14.8965ZM207.778 17.341C209.197 18.8798 210.129 21.3154 210.129 25.1152H216.129C216.129 20.3838 214.963 16.2804 212.187 13.2723L207.778 17.341ZM191.373 25.1152C191.373 28.2847 191.961 31.2052 193.608 33.4016L198.408 29.8016C197.875 29.0917 197.373 27.688 197.373 25.1152H191.373ZM193.608 33.4016C195.377 35.7608 197.988 36.7812 200.895 36.7812V30.7812C199.465 30.7812 198.818 30.3485 198.408 29.8016L193.608 33.4016ZM200.895 36.7812C203.797 36.7812 206.411 35.7723 208.183 33.4186C209.833 31.2255 210.416 28.294 210.416 25.1152H204.416C204.416 27.7138 203.912 29.1153 203.389 29.8109C202.986 30.3458 202.34 30.7812 200.895 30.7812V36.7812ZM210.416 25.1152C210.416 21.9341 209.837 19.0019 208.198 16.8072C206.436 14.4481 203.828 13.4316 200.93 13.4316V19.4316C202.355 19.4316 202.991 19.8624 203.391 20.3979C203.914 21.0977 204.416 22.5073 204.416 25.1152H210.416ZM200.93 13.4316C198.013 13.4316 195.404 14.4643 193.628 16.8258L198.423 20.432C198.85 19.8638 199.51 19.4316 200.93 19.4316V13.4316ZM193.635 16.8166C191.968 19.0148 191.373 21.9406 191.373 25.1152H197.373C197.373 22.5476 197.879 21.1493 198.416 20.4412L193.635 16.8166ZM241.254 38V41H244.254V38H241.254ZM234.328 38L231.727 39.4955L232.593 41H234.328V38ZM223.148 18.5586L225.749 17.0631L224.884 15.5586H223.148V18.5586ZM222.99 18.5586V15.5586H219.789L219.997 18.7527L222.99 18.5586ZM223.324 38V41H226.324V38H223.324ZM218.455 38H215.455V41H218.455V38ZM218.455 12.3008V9.30078H215.455V12.3008H218.455ZM225.328 12.3008L227.923 10.7958L227.056 9.30078H225.328V12.3008ZM236.49 31.5488L233.895 33.0538L234.762 34.5488H236.49V31.5488ZM236.613 31.5488V34.5488H239.775L239.609 31.3912L236.613 31.5488ZM236.35 12.3008V9.30078H233.35V12.3008H236.35ZM241.254 12.3008H244.254V9.30078H241.254V12.3008ZM241.254 35H234.328V41H241.254V35ZM236.929 36.5045L225.749 17.0631L220.548 20.0541L231.727 39.4955L236.929 36.5045ZM223.148 15.5586H222.99V21.5586H223.148V15.5586ZM219.997 18.7527C220.219 22.1843 220.324 24.5479 220.324 25.9062H226.324C226.324 24.335 226.207 21.8001 225.984 18.3645L219.997 18.7527ZM220.324 25.9062V38H226.324V25.9062H220.324ZM223.324 35H218.455V41H223.324V35ZM221.455 38V12.3008H215.455V38H221.455ZM218.455 15.3008H225.328V9.30078H218.455V15.3008ZM222.733 13.8058L233.895 33.0538L239.085 30.0439L227.923 10.7958L222.733 13.8058ZM236.49 34.5488H236.613V28.5488H236.49V34.5488ZM239.609 31.3912C239.433 28.0512 239.35 25.7605 239.35 24.4648H233.35C233.35 25.9348 233.442 28.3668 233.617 31.7065L239.609 31.3912ZM239.35 24.4648V12.3008H233.35V24.4648H239.35ZM236.35 15.3008H241.254V9.30078H236.35V15.3008ZM238.254 12.3008V38H244.254V12.3008H238.254ZM260.396 36.3477L258.526 34.0018L258.518 34.0083L260.396 36.3477ZM246.158 36.8047H243.158V38.6773L244.841 39.4998L246.158 36.8047ZM246.158 31.7422L247.38 29.0023L243.158 27.1196V31.7422H246.158ZM250.553 33.377L249.785 36.2771L249.792 36.2789L250.553 33.377ZM256.6 33.166L254.864 30.7188L254.854 30.7264L254.843 30.734L256.6 33.166ZM257.145 29.791L254.694 31.5211L254.706 31.5384L254.718 31.5555L257.145 29.791ZM255.896 28.6484L254.22 31.1362L254.232 31.1446L254.245 31.1528L255.896 28.6484ZM252.574 26.9082L253.863 24.1989L253.851 24.1933L252.574 26.9082ZM248.76 13.8828L246.829 11.5867L246.82 11.594L248.76 13.8828ZM258.973 12.4062L258.212 15.3082L258.219 15.31L258.973 12.4062ZM262.787 13.7422L265.558 14.892L266.69 12.1646L263.981 10.9898L262.787 13.7422ZM261.029 17.9785L259.891 20.754L262.655 21.8881L263.8 19.1283L261.029 17.9785ZM257.619 16.8008L256.892 19.7112L256.9 19.7134L257.619 16.8008ZM252.117 20.334L249.559 21.9017L249.571 21.9205L249.583 21.9391L252.117 20.334ZM253.172 21.3711L251.439 23.8203L251.473 23.8443L251.508 23.8672L253.172 21.3711ZM256.635 23.1641L257.929 20.4574L257.927 20.4568L256.635 23.1641ZM261.574 26.627L259.195 28.4538L259.199 28.4596L259.204 28.4654L261.574 26.627ZM259.91 30.8633C259.91 32.357 259.423 33.287 258.526 34.0019L262.267 38.6935C264.721 36.7364 265.91 34.0102 265.91 30.8633H259.91ZM258.518 34.0083C257.563 34.7756 255.995 35.3516 253.436 35.3516V41.3516C256.829 41.3516 259.902 40.5916 262.275 38.687L258.518 34.0083ZM253.436 35.3516C251.074 35.3516 249.111 34.9091 247.476 34.1095L244.841 39.4998C247.424 40.7627 250.313 41.3516 253.436 41.3516V35.3516ZM249.158 36.8047V31.7422H243.158V36.8047H249.158ZM244.936 34.4821C246.749 35.2903 248.375 35.9039 249.785 36.2771L251.32 30.4768C250.34 30.2172 249.037 29.741 247.38 29.0023L244.936 34.4821ZM249.792 36.2789C251.188 36.6448 252.55 36.8516 253.857 36.8516V30.8516C253.173 30.8516 252.332 30.7419 251.313 30.475L249.792 36.2789ZM253.857 36.8516C255.369 36.8516 257.005 36.5735 258.356 35.5981L254.843 30.734C254.893 30.698 254.873 30.7294 254.712 30.7697C254.546 30.8111 254.272 30.8516 253.857 30.8516V36.8516ZM258.335 35.6132C259.894 34.5074 260.566 32.8425 260.566 31.127H254.566C254.566 31.2211 254.55 31.1623 254.614 31.0282C254.645 30.963 254.687 30.8973 254.737 30.8379C254.787 30.779 254.834 30.7404 254.864 30.7188L258.335 35.6132ZM260.566 31.127C260.566 30.0253 260.246 28.9546 259.571 28.0265L254.718 31.5555C254.673 31.4935 254.63 31.4118 254.6 31.3184C254.571 31.2266 254.566 31.1573 254.566 31.127H260.566ZM259.595 28.061C259.037 27.2698 258.308 26.6452 257.548 26.1441L254.245 31.1528C254.41 31.2615 254.522 31.3519 254.596 31.4193C254.669 31.4866 254.695 31.5223 254.694 31.5211L259.595 28.061ZM257.573 26.1606C256.82 25.6528 255.512 24.9831 253.863 24.1989L251.286 29.6175C252.988 30.427 253.895 30.9175 254.22 31.1362L257.573 26.1606ZM253.851 24.1933C252.386 23.5049 251.49 22.9331 251.005 22.5131L247.078 27.0494C248.163 27.9888 249.621 28.835 251.298 29.6231L253.851 24.1933ZM251.005 22.5131C250.5 22.0762 250.113 21.5837 249.822 21.0252L244.498 23.7912C245.145 25.0374 246.012 26.1269 247.078 27.0494L251.005 22.5131ZM249.822 21.0252C249.613 20.6231 249.457 20.0594 249.457 19.2441H243.457C243.457 20.8429 243.769 22.3886 244.498 23.7912L249.822 21.0252ZM249.457 19.2441C249.457 17.7241 249.929 16.8244 250.699 16.1716L246.82 11.594C244.52 13.5428 243.457 16.2173 243.457 19.2441H249.457ZM250.691 16.1789C251.535 15.4688 252.901 14.9316 255.158 14.9316V8.93164C251.978 8.93164 249.078 9.69528 246.829 11.5867L250.691 16.1789ZM255.158 14.9316C256.255 14.9316 257.27 15.0613 258.212 15.3082L259.733 9.5043C258.261 9.11838 256.733 8.93164 255.158 8.93164V14.9316ZM258.219 15.31C259.267 15.5822 260.392 15.9733 261.594 16.4946L263.981 10.9898C262.534 10.3626 261.115 9.86308 259.727 9.50251L258.219 15.31ZM260.016 12.5924L258.258 16.8288L263.8 19.1283L265.558 14.892L260.016 12.5924ZM262.168 15.203C260.73 14.6132 259.442 14.1605 258.338 13.8881L256.9 19.7134C257.601 19.8864 258.586 20.2188 259.891 20.754L262.168 15.203ZM258.347 13.8904C257.232 13.6117 256.109 13.4668 254.982 13.4668V19.4668C255.59 19.4668 256.225 19.5446 256.892 19.7112L258.347 13.8904ZM254.982 13.4668C253.522 13.4668 251.922 13.8058 250.637 14.9268L254.581 19.4482C254.498 19.5211 254.445 19.5306 254.488 19.5175C254.541 19.5014 254.692 19.4668 254.982 19.4668V13.4668ZM250.637 14.9268C249.391 16.0136 248.783 17.4855 248.783 19.0684H254.783C254.783 19.0432 254.786 19.1114 254.736 19.2246C254.685 19.3421 254.616 19.4182 254.581 19.4482L250.637 14.9268ZM248.783 19.0684C248.783 20.0297 249.012 21.0085 249.559 21.9017L254.675 18.7663C254.72 18.8399 254.75 18.9148 254.767 18.9797C254.784 19.0423 254.783 19.076 254.783 19.0684H248.783ZM249.583 21.9391C250.083 22.7286 250.762 23.3409 251.439 23.8203L254.904 18.9218C254.771 18.8279 254.692 18.7583 254.651 18.7179C254.61 18.6773 254.62 18.679 254.652 18.7288L249.583 21.9391ZM251.508 23.8672C252.213 24.3375 253.576 25.0283 255.342 25.8714L257.927 20.4568C256.06 19.5654 255.115 19.0609 254.836 18.8749L251.508 23.8672ZM255.341 25.8707C257.612 26.9566 258.74 27.8621 259.195 28.4538L263.954 24.8001C262.627 23.0715 260.462 21.6684 257.929 20.4574L255.341 25.8707ZM259.204 28.4654C259.625 29.0094 259.91 29.7467 259.91 30.8633H265.91C265.91 28.6283 265.304 26.5413 263.945 24.7885L259.204 28.4654ZM280.998 29.4746V32.4746H283.846L283.994 29.631L280.998 29.4746ZM276.709 29.4746L273.713 29.631L273.862 32.4746H276.709V29.4746ZM275.812 12.3008V9.30078H272.652L272.817 12.4572L275.812 12.3008ZM281.895 12.3008L284.89 12.4572L285.055 9.30078H281.895V12.3008ZM281.086 33.2715L278.989 35.4165L279 35.428L279.012 35.4394L281.086 33.2715ZM281.086 37.6836L283.184 39.8281L283.196 39.8166L283.207 39.8049L281.086 37.6836ZM276.551 37.7012L274.453 39.8457L274.465 39.8575L274.477 39.8691L276.551 37.7012ZM280.998 26.4746H276.709V32.4746H280.998V26.4746ZM279.705 29.3182L278.808 12.1444L272.817 12.4572L273.713 29.631L279.705 29.3182ZM275.812 15.3008H281.895V9.30078H275.812V15.3008ZM278.899 12.1444L278.002 29.3182L283.994 29.631L284.89 12.4572L278.899 12.1444ZM278.742 35.4863C278.742 35.2546 278.774 35.1739 278.768 35.1919C278.764 35.2032 278.75 35.2367 278.721 35.2829C278.691 35.3299 278.652 35.3784 278.606 35.4229L274.461 31.0849C273.156 32.3315 272.742 33.9794 272.742 35.4863H278.742ZM278.606 35.4229C278.563 35.4634 278.521 35.4937 278.486 35.5141C278.452 35.5341 278.434 35.5395 278.44 35.5374C278.458 35.5316 278.575 35.498 278.836 35.498V29.498C277.355 29.498 275.73 29.872 274.461 31.0849L278.606 35.4229ZM278.836 35.498C279.063 35.498 279.153 35.5287 279.153 35.5285C279.151 35.5278 279.129 35.5199 279.095 35.4993C279.06 35.4784 279.023 35.4503 278.989 35.4165L283.183 31.1265C281.934 29.9054 280.334 29.498 278.836 29.498V35.498ZM279.012 35.4394C278.977 35.4058 278.945 35.3667 278.918 35.3258C278.892 35.2854 278.879 35.2544 278.874 35.2407C278.865 35.216 278.895 35.2813 278.895 35.4863H284.895C284.895 33.9551 284.449 32.3365 283.16 31.1036L279.012 35.4394ZM278.895 35.4863C278.895 35.66 278.869 35.7149 278.877 35.6939C278.881 35.6834 278.89 35.6612 278.908 35.6332C278.926 35.605 278.946 35.5806 278.965 35.5623L283.207 39.8049C284.426 38.5865 284.895 37.0259 284.895 35.4863H278.895ZM278.988 35.5391C279.014 35.5137 279.044 35.4908 279.073 35.4727C279.102 35.4549 279.121 35.4476 279.124 35.4467C279.128 35.4454 279.046 35.4746 278.836 35.4746V41.4746C280.356 41.4746 281.942 41.0433 283.184 39.8281L278.988 35.5391ZM278.836 35.4746C278.6 35.4746 278.499 35.4432 278.488 35.4396C278.484 35.4384 278.501 35.4437 278.53 35.4609C278.56 35.4786 278.593 35.503 278.624 35.5332L274.477 39.8691C275.735 41.0719 277.333 41.4746 278.836 41.4746V35.4746ZM278.649 35.5567C278.676 35.5837 278.703 35.6161 278.725 35.6509C278.747 35.6854 278.758 35.7118 278.762 35.7231C278.77 35.7441 278.742 35.6808 278.742 35.4863H272.742C272.742 37.0218 273.196 38.6162 274.453 39.8457L278.649 35.5567Z" fill="black" fill-opacity="0.1"/>
</g>
<defs>
<filter id="filter0_dd_23_127" x="0.248047" y="0.478516" width="289.646" height="45.9961" filterUnits="userSpaceOnUse" color-interpolation-filters="sRGB">
<feFlood flood-opacity="0" result="BackgroundImageFix"/>
<feColorMatrix in="SourceAlpha" type="matrix" values="0 0 0 0 0 0 0 0 0 0 0 0 0 0 0 0 0 0 127 0" result="hardAlpha"/>
<feOffset dx="4"/>
<feGaussianBlur stdDeviation="2"/>
<feComposite in2="hardAlpha" operator="out"/>
<feColorMatrix type="matrix" values="0 0 0 0 0 0 0 0 0 0 0 0 0 0 0 0 0 0 0.05 0"/>
<feBlend mode="normal" in2="BackgroundImageFix" result="effect1_dropShadow_23_127"/>
<feColorMatrix in="SourceAlpha" type="matrix" values="0 0 0 0 0 0 0 0 0 0 0 0 0 0 0 0 0 0 127 0" result="hardAlpha"/>
<feOffset dy="4"/>
<feGaussianBlur stdDeviation="2"/>
<feComposite in2="hardAlpha" operator="out"/>
<feColorMatrix type="matrix" values="0 0 0 0 0 0 0 0 0 0 0 0 0 0 0 0 0 0 0.1 0"/>
<feBlend mode="normal" in2="effect1_dropShadow_23_127" result="effect2_dropShadow_23_127"/>
<feBlend mode="normal" in="SourceGraphic" in2="effect2_dropShadow_23_127" result="shape"/>
</filter>
</defs>
</svg>
